<svg width="34" height="41" viewBox="0 0 34 41" fill="none" xmlns="http://www.w3.org/2000/svg">
<path d="M20.0148 0C20.1486 0.0511228 20.2361 0.131867 20.3366 0.149021C22.6448 0.542806 24.0634 1.85665 24.6229 3.85536C25.0358 5.33042 24.8411 6.81406 23.8301 8.11575C23.604 8.40677 23.3315 8.66787 23.0392 8.97332C22.8775 9.00702 22.7569 9.01016 22.5962 9.00895C21.4021 8.99361 20.2481 8.98263 19.1037 8.94794C19.4029 8.69383 19.7238 8.48859 19.9769 8.22865C21.0669 7.10948 21.4706 5.80802 21.1783 4.32763C20.8771 2.80227 19.9413 1.71523 18.4047 1.09397C17.8181 0.85677 17.1547 0.777086 16.5383 0.600315C16.8318 0.463327 17.1101 0.344411 17.3955 0.242131C17.6477 0.151786 17.9078 0.0799875 18.1644 0C18.7678 7.82711e-08 19.3711 7.82711e-08 20.0148 0Z" fill="#8B8A91"/>
<path d="M4.58813 0.626325C5.01762 0.469829 5.44594 0.310602 5.87729 0.158509C6.00581 0.113192 6.14284 0.0878766 6.29059 0.0267042C6.87992 1.17617e-05 7.45464 1.17663e-05 8.08665 0.0272453C10.1034 0.330072 11.4576 1.33451 12.3721 2.90874C12.879 3.78134 12.8335 4.70669 12.844 5.64118C12.8508 6.25529 12.7222 6.83943 12.3859 7.35423C12.0122 7.9262 11.5494 8.44988 11.0848 8.99816C9.77391 8.99069 8.50361 8.97964 7.24013 8.94388C7.27272 8.88856 7.29265 8.85096 7.32513 8.82831C8.98346 7.67195 9.62109 6.14991 9.30828 4.27846C9.03676 2.65397 7.27903 1.03542 5.50063 0.782179C5.19501 0.73866 4.89223 0.678694 4.58813 0.626325Z" fill="#8B8A91"/>
<path d="M19.9212 40.0748C19.4024 39.8452 19.401 39.3808 19.2976 38.9953C18.6467 36.5674 18.0255 34.1328 17.3956 31.7001C17.0279 30.2801 16.6625 28.8596 16.2956 27.4395C16.0884 26.6377 15.8803 25.8362 15.708 25.0024C16.2674 24.9712 16.7914 24.9722 17.3154 24.9733C17.4856 25.7054 17.6412 26.4407 17.8288 27.1691C18.3922 29.3566 18.9671 31.5417 19.5395 33.7273C19.9599 35.3324 20.4068 36.9324 20.7893 38.545C20.8858 38.9522 21.225 39.3928 20.8303 39.8252C20.7624 39.8996 20.6715 39.9566 20.5809 40.0482C20.3668 40.0748 20.1631 40.0748 19.9212 40.0748Z" fill="black"/>
<path d="M10.6982 24.9732C10.4904 25.8424 10.2934 26.7137 10.0727 27.5801C9.53749 29.6822 8.99601 31.7831 8.44805 33.8825C7.98395 35.6606 7.51721 37.4383 7.02609 39.2103C6.9468 39.4964 6.73431 39.7519 6.57308 40.0482C6.35905 40.0748 6.15533 40.0748 5.91344 40.0748C5.45218 39.8417 5.36771 39.4894 5.47321 39.0835C6.0916 36.7046 6.71307 34.3262 7.33636 31.9483C7.78527 30.2357 8.24014 28.5243 8.68921 26.8117C8.84412 26.2209 8.98953 25.6281 9.17572 25.0032C9.7075 24.9713 10.2028 24.9723 10.6982 24.9732Z" fill="black"/>
<path d="M11.0847 8.99819C12.4693 8.99639 13.8131 8.99816 15.2369 8.99958C16.576 8.99005 17.8351 8.98086 19.0943 8.97168C20.2482 8.98267 21.4022 8.99365 22.5952 9.04468C22.6345 14.375 22.6346 19.6652 22.6348 24.9555C20.8881 24.96 19.1414 24.9645 17.3552 24.9712C16.7917 24.9723 16.2677 24.9713 15.7028 24.9718C14.0337 24.9719 12.4056 24.9704 10.7379 24.9711C10.203 24.9723 9.70769 24.9713 9.17147 24.9718C6.49894 24.9717 3.86698 24.9495 1.23584 24.982C0.514412 24.9909 0.288963 24.5951 0.289403 24.0946C0.289919 23.5084 0.289524 22.9222 0.289524 22.336C0.289524 18.1805 0.292938 14.0249 0.285647 9.86939C0.284616 9.28168 0.568064 8.94112 1.23891 8.99064C1.89249 9.03889 2.5538 9.00036 3.29162 8.99956C4.65877 8.989 5.94602 8.97881 7.23327 8.96861C8.50356 8.97967 9.77385 8.99072 11.0847 8.99819Z" fill="black"/>
<path d="M22.6743 24.9612C22.6344 19.6652 22.6343 14.3749 22.6352 9.04899C22.7568 9.01016 22.8774 9.00702 23.0338 8.99914C23.8549 8.99667 24.6425 9.03355 25.4248 8.99053C26.0804 8.95448 26.3222 9.35608 26.325 9.83397C26.331 10.8614 26.3275 11.8889 26.3194 12.9872C26.3009 13.1221 26.2823 13.1861 26.2821 13.2501C26.2771 15.7394 26.2728 18.2288 26.273 20.7181C26.273 20.8315 26.3162 20.9449 26.3392 21.0583C26.3351 22.0571 26.3306 23.0559 26.3269 24.0547C26.3243 24.7315 26.0643 24.9684 25.3209 24.9683C24.452 24.9682 23.583 24.9675 22.6743 24.9612Z" fill="black"/>
<path d="M30.4696 11.6014C31.2589 11.3167 32.0397 11.0103 32.84 10.7543C33.4674 10.5537 33.9667 10.9566 33.9672 11.6236C33.9692 14.2977 33.9681 16.9717 33.9681 19.6457C33.9681 20.5718 33.9707 21.498 33.9672 22.4241C33.9642 23.2227 33.4627 23.5233 32.6572 23.2281C31.9495 22.9688 31.2346 22.7257 30.4942 22.4258C30.4668 18.7845 30.4682 15.193 30.4696 11.6014Z" fill="#8A8990"/>
<path d="M30.4365 11.5975C30.4679 15.1929 30.4665 18.7845 30.4672 22.4113C29.5634 22.1457 28.6562 21.848 27.7521 21.5426C27.2989 21.3895 26.8514 21.2224 26.3702 21.06C26.3161 20.9449 26.273 20.8315 26.273 20.7181C26.2727 18.2288 26.277 15.7394 26.2821 13.2501C26.2822 13.1861 26.3009 13.1221 26.3247 13.0233C27.6936 12.5236 29.0486 12.0586 30.4365 11.5975Z" fill="#C7C6CC"/>
<path d="M7.23999 8.94387C5.94593 8.97877 4.65868 8.98896 3.33103 8.9943C2.48869 8.14947 1.81653 7.2465 1.62624 6.1136C1.3677 4.57435 1.68763 3.1671 2.7675 1.92753C3.24959 1.37414 3.80084 0.906249 4.55598 0.626522C4.89209 0.678681 5.19487 0.738648 5.50049 0.782166C7.27889 1.03541 9.03662 2.65396 9.30815 4.27845C9.62095 6.1499 8.98332 7.67194 7.32499 8.8283C7.29251 8.85095 7.27258 8.88855 7.23999 8.94387Z" fill="#C7C6CC"/>
<path d="M19.1037 8.94798C17.835 8.98086 16.5758 8.99004 15.2763 8.99436C14.419 8.23896 13.8365 7.36758 13.5615 6.33207C12.998 4.2106 14.0905 1.83078 16.1451 0.727503C16.2402 0.676448 16.3562 0.657781 16.4943 0.624844C17.1546 0.777123 17.818 0.856806 18.4047 1.094C19.9413 1.71526 20.8771 2.8023 21.1782 4.32767C21.4705 5.80805 21.0669 7.10952 19.9769 8.22869C19.7237 8.48863 19.4029 8.69387 19.1037 8.94798Z" fill="#C7C6CC"/>
</svg>
