<svg width="130" height="32" viewBox="0 0 130 32" fill="none" xmlns="http://www.w3.org/2000/svg">
<path d="M5.928 29.344C8.36 29.344 9.576 28.512 9.576 26.848C9.576 26.336 9.464 25.904 9.24 25.552C9.032 25.184 8.744 24.872 8.376 24.616C8.008 24.344 7.584 24.112 7.104 23.92C6.64 23.728 6.144 23.536 5.616 23.344C5.008 23.136 4.432 22.904 3.888 22.648C3.344 22.376 2.872 22.064 2.472 21.712C2.072 21.344 1.752 20.912 1.512 20.416C1.288 19.92 1.176 19.32 1.176 18.616C1.176 17.16 1.672 16.024 2.664 15.208C3.656 14.392 5.024 13.984 6.768 13.984C7.776 13.984 8.688 14.096 9.504 14.32C10.336 14.528 10.944 14.76 11.328 15.016L10.584 16.912C10.248 16.704 9.744 16.504 9.072 16.312C8.416 16.104 7.648 16 6.768 16C6.32 16 5.904 16.048 5.52 16.144C5.136 16.24 4.8 16.384 4.512 16.576C4.224 16.768 3.992 17.016 3.816 17.32C3.656 17.608 3.576 17.952 3.576 18.352C3.576 18.8 3.664 19.176 3.84 19.48C4.016 19.784 4.264 20.056 4.584 20.296C4.904 20.52 5.272 20.728 5.688 20.92C6.12 21.112 6.592 21.304 7.104 21.496C7.824 21.784 8.48 22.072 9.072 22.36C9.68 22.648 10.2 22.992 10.632 23.392C11.08 23.792 11.424 24.272 11.664 24.832C11.904 25.376 12.024 26.04 12.024 26.824C12.024 28.28 11.488 29.4 10.416 30.184C9.36 30.968 7.864 31.36 5.928 31.36C5.272 31.36 4.664 31.312 4.104 31.216C3.56 31.136 3.072 31.04 2.64 30.928C2.208 30.8 1.832 30.672 1.512 30.544C1.208 30.4 0.968 30.28 0.792 30.184L1.488 28.264C1.856 28.472 2.416 28.704 3.168 28.96C3.92 29.216 4.84 29.344 5.928 29.344ZM14.8374 31V14.368H24.9894V16.36H17.1654V21.304H24.1254V23.248H17.1654V29.008H25.5894V31H14.8374ZM39.9484 31C39.5964 30.408 39.1884 29.744 38.7244 29.008C38.2764 28.272 37.7884 27.512 37.2604 26.728C36.7324 25.928 36.1804 25.12 35.6044 24.304C35.0444 23.488 34.4844 22.704 33.9244 21.952C33.3644 21.184 32.8204 20.464 32.2924 19.792C31.7644 19.12 31.2764 18.528 30.8284 18.016V31H28.5484V14.368H30.3964C31.1484 15.168 31.9484 16.104 32.7964 17.176C33.6604 18.232 34.5084 19.328 35.3404 20.464C36.1884 21.584 36.9804 22.688 37.7164 23.776C38.4684 24.864 39.1004 25.832 39.6124 26.68V14.368H41.8924V31H39.9484Z" fill="white"/>
<path d="M78.064 14.368H80.392V31H78.064V14.368ZM84.5093 31V14.368H94.5413V16.36H86.8373V21.376H93.6773V23.344H86.8373V31H84.5093ZM107.408 28.984V31H97.3999V14.368H99.7279V28.984H107.408ZM109.845 14.368H112.173V31H109.845V14.368ZM126.275 31C126.035 30.52 125.747 29.992 125.411 29.416C125.075 28.824 124.707 28.216 124.307 27.592C123.907 26.952 123.491 26.32 123.059 25.696C122.627 25.056 122.211 24.456 121.811 23.896C121.411 24.456 120.995 25.056 120.563 25.696C120.131 26.32 119.715 26.952 119.315 27.592C118.931 28.216 118.563 28.824 118.211 29.416C117.875 29.992 117.587 30.52 117.347 31H114.779C115.499 29.592 116.331 28.16 117.275 26.704C118.235 25.248 119.251 23.752 120.323 22.216L114.995 14.368H117.683L121.787 20.56L125.843 14.368H128.507L123.275 22.12C124.363 23.672 125.387 25.184 126.347 26.656C127.307 28.128 128.155 29.576 128.891 31H126.275Z" fill="white"/>
<g clip-path="url(#clip0_52_29)">
<path d="M61.5907 0.0605469C61.685 0.100093 61.7466 0.162553 61.8174 0.175823C63.4437 0.480436 64.4431 1.49676 64.8373 3.04287C65.1282 4.18391 64.9911 5.33158 64.2787 6.33851C64.1194 6.56363 63.9275 6.76561 63.7215 7.00188C63.6076 7.02796 63.5227 7.03039 63.4094 7.02945C62.5681 7.01758 61.7551 7.00909 60.9488 6.98226C61.1596 6.78569 61.3857 6.62692 61.564 6.42585C62.332 5.56011 62.6163 4.55336 62.4104 3.4082C62.1982 2.22825 61.5389 1.38737 60.4563 0.906787C60.043 0.723304 59.5756 0.661664 59.1414 0.524922C59.3481 0.418955 59.5442 0.326967 59.7453 0.247848C59.9229 0.177962 60.1062 0.122421 60.287 0.0605469C60.7121 0.0605469 61.1372 0.0605469 61.5907 0.0605469Z" fill="#8B8A91"/>
<path d="M50.7219 0.545034C51.0245 0.423976 51.3263 0.300805 51.6302 0.183153C51.7207 0.148098 51.8173 0.128516 51.9214 0.0811957C52.3366 0.0605476 52.7415 0.0605476 53.1868 0.0816142C54.6077 0.315867 55.5617 1.09285 56.2061 2.3106C56.5632 2.98561 56.5312 3.70141 56.5385 4.42429C56.5434 4.89934 56.4528 5.3512 56.2158 5.74943C55.9525 6.19187 55.6265 6.59697 55.2991 7.0211C54.3755 7.01531 53.4806 7.00676 52.5904 6.97911C52.6133 6.93631 52.6274 6.90723 52.6503 6.88971C53.8186 5.9952 54.2679 4.81782 54.0475 3.37015C53.8562 2.11353 52.6178 0.861493 51.3648 0.665595C51.1495 0.631931 50.9362 0.585544 50.7219 0.545034Z" fill="#8B8A91"/>
<path d="M61.525 31.0605C61.1595 30.8829 61.1585 30.5237 61.0857 30.2255C60.6271 28.3474 60.1895 26.4641 59.7457 24.5823C59.4866 23.4838 59.2291 22.385 58.9706 21.2865C58.8247 20.6663 58.678 20.0462 58.5566 19.4012C58.9508 19.3771 59.32 19.3779 59.6891 19.3787C59.8091 19.9451 59.9187 20.5138 60.0508 21.0773C60.4478 22.7694 60.8528 24.4597 61.2561 26.1504C61.5523 27.3921 61.8672 28.6297 62.1366 29.8772C62.2047 30.1921 62.4436 30.533 62.1656 30.8675C62.1177 30.925 62.0536 30.9691 61.9898 31.04C61.839 31.0605 61.6955 31.0605 61.525 31.0605Z" fill="white"/>
<path d="M55.027 19.3787C54.8806 20.051 54.7417 20.725 54.5863 21.3952C54.2092 23.0213 53.8277 24.6464 53.4416 26.2704C53.1147 27.6459 52.7858 29.021 52.4398 30.3918C52.3839 30.6131 52.2342 30.8108 52.1206 31.0399C51.9699 31.0605 51.8263 31.0605 51.6559 31.0605C51.3309 30.8802 51.2714 30.6077 51.3457 30.2937C51.7814 28.4535 52.2193 26.6137 52.6584 24.7743C52.9747 23.4494 53.2952 22.1256 53.6116 20.8008C53.7207 20.3438 53.8231 19.8852 53.9543 19.4019C54.329 19.3771 54.678 19.3779 55.027 19.3787Z" fill="white"/>
<path d="M55.2991 7.0211C56.2746 7.0197 57.2214 7.02107 58.2245 7.02217C59.168 7.01479 60.0551 7.00769 60.9422 7.00059C61.7552 7.00909 62.5682 7.01759 63.4088 7.05705C63.4365 11.1803 63.4365 15.2726 63.4366 19.3649C62.206 19.3684 60.9754 19.3719 59.7169 19.3771C59.3199 19.3779 58.9507 19.3771 58.5527 19.3775C57.3768 19.3776 56.2297 19.3765 55.0548 19.377C54.6779 19.3779 54.3289 19.3771 53.9511 19.3775C52.0682 19.3775 50.2139 19.3603 48.3601 19.3854C47.8519 19.3923 47.693 19.0861 47.6933 18.699C47.6937 18.2455 47.6934 17.7921 47.6934 17.3386C47.6934 14.1241 47.6958 10.9095 47.6907 7.69501C47.6899 7.24039 47.8897 6.97695 48.3623 7.01526C48.8228 7.05258 49.2887 7.02277 49.8085 7.02216C50.7717 7.01399 51.6787 7.0061 52.5856 6.99821C53.4806 7.00676 54.3755 7.01532 55.2991 7.0211Z" fill="white"/>
<path d="M63.4647 19.3694C63.4366 15.2726 63.4365 11.1803 63.4372 7.06042C63.5229 7.03039 63.6078 7.02796 63.718 7.02186C64.2965 7.01995 64.8514 7.04848 65.4025 7.0152C65.8644 6.98731 66.0348 7.29797 66.0368 7.66765C66.041 8.46241 66.0386 9.25721 66.0329 10.1068C66.0198 10.2112 66.0067 10.2607 66.0066 10.3102C66.003 12.2358 66 14.1615 66.0002 16.0871C66.0002 16.1748 66.0306 16.2625 66.0468 16.3503C66.0439 17.1229 66.0407 17.8955 66.0381 18.6682C66.0363 19.1917 65.8531 19.3749 65.3294 19.3749C64.7171 19.3748 64.1049 19.3742 63.4647 19.3694Z" fill="white"/>
<path d="M68.9565 9.03482C69.5125 8.81461 70.0627 8.57757 70.6266 8.37958C71.0686 8.22438 71.4204 8.53607 71.4207 9.05205C71.4221 11.1205 71.4213 13.189 71.4213 15.2575C71.4213 15.974 71.4232 16.6904 71.4207 17.4068C71.4186 18.0245 71.0652 18.2571 70.4977 18.0287C69.9992 17.8281 69.4955 17.6401 68.9738 17.4081C68.9545 14.5914 68.9555 11.8131 68.9565 9.03482Z" fill="#8A8990"/>
<path d="M68.9334 9.03183C68.9555 11.8131 68.9545 14.5914 68.9551 17.3969C68.3183 17.1914 67.6791 16.9611 67.0422 16.7249C66.7228 16.6065 66.4075 16.4772 66.0685 16.3516C66.0304 16.2625 66 16.1748 66 16.0871C65.9998 14.1615 66.0028 12.2358 66.0064 10.3102C66.0065 10.2607 66.0197 10.2112 66.0365 10.1348C67.0009 9.74818 67.9556 9.38851 68.9334 9.03183Z" fill="#C7C6CC"/>
<path d="M52.5903 6.97911C51.6786 7.0061 50.7716 7.01399 49.8362 7.01812C49.2428 6.36459 48.7692 5.6661 48.6351 4.78974C48.453 3.59905 48.6784 2.51046 49.4392 1.55159C49.7789 1.12352 50.1672 0.761578 50.6993 0.545195C50.9361 0.585543 51.1494 0.63193 51.3647 0.665594C52.6177 0.861492 53.8561 2.11353 54.0474 3.37015C54.2678 4.81782 53.8185 5.9952 52.6502 6.8897C52.6273 6.90723 52.6132 6.93631 52.5903 6.97911Z" fill="#C7C6CC"/>
<path d="M60.9488 6.98226C60.0549 7.00769 59.1678 7.01479 58.2522 7.01814C57.6482 6.43379 57.2378 5.75973 57.044 4.95872C56.6471 3.31765 57.4168 1.47672 58.8643 0.623282C58.9313 0.583788 59.0131 0.569348 59.1104 0.543869C59.5756 0.661665 60.043 0.723305 60.4563 0.906788C61.5389 1.38737 62.1982 2.22825 62.4104 3.4082C62.6163 4.55336 62.332 5.56011 61.564 6.42585C61.3856 6.62692 61.1596 6.78569 60.9488 6.98226Z" fill="#C7C6CC"/>
</g>
<defs>
<clipPath id="clip0_52_29">
<rect width="31" height="31" fill="white" transform="translate(44)"/>
</clipPath>
</defs>
</svg>
